<?xml version="1.0" standalone="no"?>
<!DOCTYPE svg PUBLIC "-//W3C//DTD SVG 20010904//EN"
 "http://www.w3.org/TR/2001/REC-SVG-20010904/DTD/svg10.dtd">
<svg version="1.0" xmlns="http://www.w3.org/2000/svg"
 width="500.000000pt" height="500.000000pt" viewBox="0 0 500.000000 500.000000"
 preserveAspectRatio="xMidYMid meet">

<g transform="translate(0.000000,500.000000) scale(0.100000,-0.100000)"
fill="#000000" stroke="none">
<path d="M2155 3634 c-99 -11 -263 -48 -357 -80 -214 -75 -345 -158 -513 -328
-209 -210 -314 -407 -372 -692 -27 -135 -24 -443 5 -581 54 -252 151 -433 318
-593 164 -157 372 -268 629 -335 396 -103 879 -56 1219 118 336 172 554 457
633 827 20 95 25 340 9 490 l-8 85 103 2 c122 2 225 30 329 90 79 46 270 229
270 259 0 18 -23 26 -225 75 l-224 54 45 70 c91 139 154 287 154 358 l0 30
-92 -6 c-249 -16 -449 -118 -574 -293 l-46 -65 -102 104 c-200 202 -436 327
-736 388 -93 19 -373 33 -465 23z m474 -900 c214 -27 374 -79 503 -163 155
-101 228 -229 228 -400 0 -135 -39 -237 -125 -330 -59 -63 -120 -100 -210
-127 -88 -26 -297 -24 -490 6 -179 27 -339 24 -503 -9 -265 -54 -497 -7 -631
126 -97 97 -137 212 -129 371 6 123 49 214 144 301 76 69 226 149 342 180 243
66 565 83 871 45z"/>
<path d="M1709 2360 c-75 -39 -109 -106 -109 -210 1 -90 52 -172 123 -199 70
-27 165 0 209 59 21 29 48 120 48 166 0 43 -26 113 -53 143 -53 58 -152 76
-218 41z"/>
<path d="M2765 2367 c-136 -62 -153 -299 -29 -394 51 -39 142 -44 198 -11 61
35 91 102 90 198 0 89 -24 144 -80 186 -43 33 -130 43 -179 21z"/>
</g>
</svg>
